HIERARCHY
ROOT Hips
{
	OFFSET 0.000000 88.474243 0.000000
	CHANNELS 6 Xposition Yposition Zposition Zrotation Yrotation Xrotation 
	JOINT Hips_Spine
	{
		OFFSET 0.000000 0.000000 0.000000
		CHANNELS 3 Zrotation Yrotation Xrotation
		JOINT Spine
		{
			OFFSET 0.005100 8.711998 -0.691000
			CHANNELS 3 Zrotation Yrotation Xrotation
			JOINT Spine1
			{
				OFFSET -0.009200 8.660301 -1.275000
				CHANNELS 3 Zrotation Yrotation Xrotation
				JOINT Spine2
				{
					OFFSET 0.006300 9.852501 -1.857000
					CHANNELS 3 Zrotation Yrotation Xrotation
					JOINT Spine2_Neck
					{
						OFFSET 0.000000 0.000000 0.000000
						CHANNELS 3 Zrotation Yrotation Xrotation
						JOINT Neck
						{
							OFFSET 0.016300 11.420799 -0.263300
							CHANNELS 3 Zrotation Yrotation Xrotation
							End Site #name: Head
							{
								OFFSET -0.019200 9.262405 2.362500
							}
						}
					}
					JOINT Spine2_LeftShoulder
					{
						OFFSET 0.000000 0.000000 0.000000
						CHANNELS 3 Zrotation Yrotation Xrotation
						JOINT LeftShoulder
						{
							OFFSET 5.616900 6.732201 -0.345700
							CHANNELS 3 Zrotation Yrotation Xrotation
							JOINT LeftArm
							{
								OFFSET 10.664888 -0.183372 -2.440700
								CHANNELS 3 Zrotation Yrotation Xrotation
								JOINT LeftForeArm
								{
									OFFSET 27.459126 0.000000 0.000000
									CHANNELS 3 Zrotation Yrotation Xrotation
									End Site #name: LeftHand
									{
										OFFSET 21.306858 0.000000 0.000000
									}
								}
							}
						}
					}
					JOINT Spine2_RightShoulder
					{
						OFFSET 0.000000 0.000000 0.000000
						CHANNELS 3 Zrotation Yrotation Xrotation
						JOINT RightShoulder
						{
							OFFSET -5.580300 6.737503 -0.344400
							CHANNELS 3 Zrotation Yrotation Xrotation
							JOINT RightArm
							{
								OFFSET -10.679335 -0.188484 -2.383900
								CHANNELS 3 Zrotation Yrotation Xrotation
								JOINT RightForeArm
								{
									OFFSET -27.503529 0.000000 0.000000
									CHANNELS 3 Zrotation Yrotation Xrotation
									End Site #name: RightHand
									{
										OFFSET -21.306808 0.000000 0.000000
									}
								}
							}
						}
					}
				}
			}
		}
	}
	JOINT Hips_LeftUpLeg
	{
		OFFSET 0.000000 0.000000 0.000000
		CHANNELS 3 Zrotation Yrotation Xrotation
		JOINT LeftUpLeg
		{
			OFFSET 6.857700 -6.739601 0.312100
			CHANNELS 3 Zrotation Yrotation Xrotation
			JOINT LeftLeg
			{
				OFFSET -0.367590 -34.731552 -4.572400
				CHANNELS 3 Zrotation Yrotation Xrotation
				End Site #name: LeftFoot
				{
					OFFSET 0.367590 -34.656704 -6.067400
				}
			}
		}
	}
	JOINT Hips_RightUpLeg
	{
		OFFSET 0.000000 0.000000 0.000000
		CHANNELS 3 Zrotation Yrotation Xrotation
		JOINT RightUpLeg
		{
			OFFSET -6.876100 -6.733299 0.301000
			CHANNELS 3 Zrotation Yrotation Xrotation
			JOINT RightLeg
			{
				OFFSET 0.347353 -34.795158 -4.515900
				CHANNELS 3 Zrotation Yrotation Xrotation
				End Site #name: RightFoot
				{
					OFFSET -0.347353 -34.589367 -6.070300
				}
			}
		}
	}
}
MOTION
Frames: 15
Frame Time: 0.041667
-2.019060 0.397827 -3.274765 -1.336589 22.750831 -6.743324 0.000000 0.000000 0.000000 5.826010 1.460126 -5.069543 3.223143 -0.249447 -2.026319 0.000000 0.000000 0.000000 3.144843 -0.181075 -1.325329 1.676488 -2.295668 0.386881 2.777804 -0.679540 -1.731125 -24.233802 1.807784 2.779904 -50.691428 14.113326 23.862840 -0.823658 -17.524869 2.401146 2.659460 -0.068394 -0.729813 13.747216 8.748046 2.364855 58.524402 2.006311 5.963718 0.698320 38.444196 -0.304876 -0.000000 -0.000000 -0.000000 -5.203759 14.994423 -7.078959 3.976133 11.191254 21.476454 0.000000 0.000000 0.000000 -1.821624 -1.698838 -11.525618 1.009550 -7.081465 2.039547 
-2.384636 0.408311 -3.360693 -1.454102 23.246408 -6.839395 0.000000 0.000000 0.000000 6.235588 1.375219 -4.988201 3.391672 -0.317541 -1.977139 0.000000 0.000000 0.000000 3.278246 -0.193963 -1.269843 1.788836 -2.258741 0.529274 2.946815 -0.710728 -1.641931 -23.967077 1.880546 2.815683 -51.030941 14.482498 23.577976 -0.854346 -18.346608 2.361701 2.800836 -0.095176 -0.714237 13.930240 9.101202 2.476992 58.266318 1.827275 5.714546 0.703653 38.889270 -0.303796 -0.000000 -0.000000 -0.000000 -4.648995 15.441905 -7.040891 3.971070 11.164786 21.276683 0.000000 0.000000 0.000000 -1.418156 -1.628443 -11.709768 1.134210 -7.243171 2.179725 
-2.725846 0.422841 -3.435571 -1.583459 23.542703 -6.925375 0.000000 0.000000 0.000000 6.606291 1.225777 -4.854451 3.565657 -0.397241 -1.921270 0.000000 0.000000 0.000000 3.411360 -0.217610 -1.206333 1.875811 -2.241177 0.692530 3.114424 -0.752017 -1.546197 -23.742037 1.939902 2.836512 -51.339501 14.765286 23.338698 -0.887649 -19.145366 2.328071 2.943317 -0.134436 -0.689565 14.130188 9.448130 2.590161 58.001329 1.674084 5.463109 0.709099 39.363176 -0.302570 -0.000000 -0.000000 -0.000000 -4.087411 15.929363 -6.945273 3.997878 11.130992 21.023925 0.000000 0.000000 0.000000 -0.986998 -1.510153 -11.845662 1.326553 -7.357026 2.224127 
-3.034009 0.437478 -3.501411 -1.723306 23.677692 -7.014460 0.000000 0.000000 0.000000 6.961626 1.024221 -4.685165 3.746718 -0.491587 -1.849219 0.000000 0.000000 0.000000 3.547429 -0.262776 -1.145150 1.964606 -2.172134 0.781437 3.285516 -0.803265 -1.453644 -23.565955 2.006786 2.832786 -51.604725 14.962242 23.145942 -0.918005 -19.889251 2.298998 3.089170 -0.185956 -0.658642 14.337751 9.797188 2.705282 57.727660 1.534804 5.226119 0.715723 39.859634 -0.300447 -0.000000 -0.000000 -0.000000 -3.518182 16.373736 -6.889380 4.085300 11.253963 20.994837 0.000000 -0.000000 0.000000 -0.531783 -1.365043 -11.983066 1.528685 -7.468084 2.297852 
-3.298184 0.449809 -3.559248 -1.842083 23.642353 -7.098041 0.000000 0.000000 0.000000 7.259966 0.800221 -4.493804 3.932107 -0.597122 -1.758601 0.000000 0.000000 0.000000 3.683415 -0.316223 -1.080551 2.048498 -2.093428 0.877119 3.456829 -0.861511 -1.357804 -23.442106 2.087406 2.809652 -51.835469 15.120705 22.975534 -0.944007 -20.577424 2.284053 3.237649 -0.247539 -0.623839 14.556170 10.165470 2.828806 57.462837 1.416543 4.967160 0.721707 40.369531 -0.298117 -0.000000 -0.000000 -0.000000 -2.926682 16.718561 -6.865537 4.164987 11.449689 21.202332 0.000000 -0.000000 0.000000 -0.096288 -1.246372 -12.150532 1.728386 -7.574636 2.443455 
-3.509213 0.456964 -3.612841 -1.922216 23.425933 -7.163274 0.000000 0.000000 0.000000 7.517037 0.552797 -4.287971 4.102874 -0.707353 -1.669806 0.000000 0.000000 0.000000 3.817213 -0.375761 -1.011500 2.118594 -2.022103 0.979581 3.626684 -0.928245 -1.260268 -23.352433 2.170830 2.769082 -52.046035 15.241818 22.839556 -0.969859 -21.212445 2.267507 3.383118 -0.331252 -0.586038 14.762583 10.545972 2.954560 57.203718 1.338418 4.692107 0.730998 40.895048 -0.294685 -0.000000 -0.000000 -0.000000 -2.366229 16.961936 -6.883506 4.199986 11.702864 21.735781 0.000000 -0.000000 0.000000 0.286849 -1.165749 -12.366051 1.925861 -7.658197 2.683093 
-3.659682 0.457672 -3.664316 -1.943238 23.023784 -7.193022 0.000000 -0.000000 0.000000 7.712745 0.277163 -4.062931 4.250658 -0.818153 -1.563168 0.000000 0.000000 0.000000 3.947709 -0.442052 -0.940773 2.175307 -1.954936 1.080201 3.793714 -1.000072 -1.161782 -23.305539 2.244468 2.701095 -52.207453 15.314404 22.775644 -0.995331 -21.740664 2.258524 3.526931 -0.426739 -0.544890 14.927028 10.937221 3.072581 56.963791 1.245346 4.385081 0.743014 41.403186 -0.290074 -0.000000 -0.000000 -0.000000 -1.771389 17.111179 -6.939366 4.225110 12.318041 22.293652 0.000000 -0.000000 0.000000 0.577781 -1.117165 -12.616964 2.117909 -7.712286 3.018461 
-3.744566 0.453927 -3.713591 -1.889201 22.420695 -7.170966 0.000000 -0.000000 0.000000 7.838304 -0.019969 -3.826215 4.383376 -0.934010 -1.441905 0.000000 0.000000 0.000000 4.072111 -0.514134 -0.869785 2.214141 -1.896138 1.171701 3.952949 -1.078655 -1.070276 -23.290652 2.306950 2.622003 -52.327491 15.374313 22.733841 -1.014480 -22.168241 2.262840 3.666308 -0.528430 -0.503152 15.030333 11.279709 3.167911 56.751188 1.155216 4.058856 0.757559 41.966665 -0.285220 -0.000000 -0.000000 -0.000000 -1.246294 17.162775 -6.912501 4.288958 12.849393 22.789981 0.000000 -0.000000 0.000000 0.757276 -1.035140 -12.886438 2.301222 -7.736931 3.402651 
-3.758781 0.446230 -3.758537 -1.758656 21.531118 -7.098825 0.000000 -0.000000 0.000000 7.890357 -0.310301 -3.582174 4.507544 -1.044100 -1.321773 0.000000 0.000000 0.000000 4.187711 -0.584491 -0.792222 2.232140 -1.836195 1.247949 4.103113 -1.155337 -0.979953 -23.306445 2.343029 2.538320 -52.417907 15.413727 22.681626 -1.031036 -22.499190 2.271932 3.798888 -0.626804 -0.484862 15.052284 11.566978 3.239002 56.586533 1.091895 3.734709 0.774126 42.519978 -0.278444 -0.000000 -0.000000 -0.000000 -0.848936 17.096463 -6.885306 4.327066 12.942512 23.375060 0.000000 -0.000000 0.000000 0.824960 -0.913137 -13.168926 2.463361 -7.734884 3.850742 
-3.703467 0.435022 -3.799334 -1.566718 20.297320 -6.979603 0.000000 -0.000000 0.000000 7.866240 -0.588293 -3.344725 4.616275 -1.140056 -1.208018 0.000000 0.000000 0.000000 4.291219 -0.647732 -0.723110 2.234551 -1.783495 1.324921 4.239879 -1.224161 -0.904279 -23.348246 2.360798 2.449794 -52.463644 15.452219 22.629311 -1.043346 -22.721859 2.282589 3.921587 -0.717338 -0.471137 15.024205 11.825783 3.300320 56.469959 1.057121 3.372514 0.791268 43.040626 -0.273071 -0.000000 -0.000000 -0.000000 -0.694232 16.934344 -6.827261 4.375560 12.997258 23.675991 0.000000 -0.000000 0.000000 0.801319 -0.763278 -13.473513 2.593383 -7.707826 4.367864 
-3.579936 0.420546 -3.837156 -1.338779 18.855869 -6.829745 0.000000 -0.000000 0.000000 7.762221 -0.843513 -3.152660 4.713525 -1.217166 -1.126835 0.000000 0.000000 0.000000 4.383609 -0.699244 -0.667128 2.216759 -1.739847 1.394042 4.362989 -1.279701 -0.845111 -23.423210 2.361788 2.363057 -52.447260 15.517693 22.541810 -1.047577 -22.838314 2.293341 4.029209 -0.786105 -0.463950 14.957429 12.044703 3.346252 56.424568 1.027918 2.966410 0.810341 43.535080 -0.267158 -0.000000 -0.000000 -0.000000 -0.738545 16.696098 -6.820049 4.418299 13.031379 23.857272 0.000000 -0.000000 0.000000 0.682667 -0.615483 -13.766856 2.707834 -7.649343 4.908958 
-3.390749 0.403404 -3.872248 -1.091432 17.301881 -6.673449 0.000000 -0.000000 0.000000 7.554049 -1.058311 -3.005915 4.798322 -1.277376 -1.077470 0.000000 0.000000 0.000000 4.461608 -0.738992 -0.629959 2.184342 -1.690353 1.457264 4.467545 -1.323040 -0.808801 -23.551259 2.362281 2.278004 -52.390852 15.654920 22.420233 -1.049853 -22.898589 2.291702 4.118442 -0.839435 -0.462524 14.866982 12.254232 3.381638 56.445136 0.965503 2.493400 0.831122 43.957814 -0.259425 -0.000000 -0.000000 -0.000000 -0.978981 16.479988 -6.831884 4.407458 13.066478 23.877033 0.000000 -0.000000 0.000000 0.489510 -0.446751 -14.046383 2.801451 -7.597383 5.443377 
-3.138541 0.382758 -3.906031 -0.847920 15.782294 -6.525923 0.000000 -0.000000 0.000000 7.295371 -1.219588 -2.905514 4.870916 -1.329646 -1.048501 0.000000 0.000000 0.000000 4.527593 -0.771298 -0.606007 2.151687 -1.640403 1.494636 4.554995 -1.359484 -0.785030 -23.735073 2.350047 2.188516 -52.275612 15.872079 22.259857 -1.049593 -22.888822 2.279510 4.192334 -0.885900 -0.464941 14.761442 12.458457 3.401096 56.516522 0.894559 1.993199 0.851640 44.328204 -0.251951 -0.000000 -0.000000 -0.000000 -1.411004 16.322452 -6.780870 4.212992 13.035583 23.617896 0.000000 -0.000000 0.000000 0.239599 -0.290745 -14.295558 2.870229 -7.540312 5.974312 
-2.834348 0.361574 -3.940237 -0.622294 14.431041 -6.407713 0.000000 -0.000000 0.000000 7.030343 -1.319804 -2.855827 4.931511 -1.374034 -1.044956 0.000000 0.000000 0.000000 4.581944 -0.799920 -0.601567 2.119852 -1.603201 1.511696 4.626920 -1.391880 -0.773783 -23.963585 2.340258 2.100789 -52.099942 16.191276 22.057079 -1.044085 -22.803870 2.246689 4.256746 -0.928076 -0.473172 14.629006 12.668172 3.410660 56.618176 0.827732 1.483434 0.871517 44.669268 -0.240009 0.000000 -0.000000 -0.000000 -2.005699 16.244913 -6.652790 3.840268 12.894409 23.078833 0.000000 -0.000000 0.000000 -0.050125 -0.212924 -14.498409 2.918963 -7.483272 6.477820 
-2.487995 0.341274 -3.979082 -0.432574 13.248099 -6.325887 0.000000 -0.000000 0.000000 6.786547 -1.355452 -2.844625 4.985052 -1.410992 -1.060541 0.000000 0.000000 0.000000 4.629289 -0.823655 -0.619542 2.091148 -1.583820 1.510081 4.689587 -1.415422 -0.779431 -24.234429 2.343868 1.995296 -51.851385 16.577144 21.807606 -1.041756 -22.669492 2.194465 4.315875 -0.963339 -0.483225 14.476105 12.890030 3.416548 56.751295 0.731423 0.972745 0.890970 45.001172 -0.225882 0.000000 -0.000000 -0.000000 -2.675840 16.231129 -6.540403 3.460417 12.822784 22.544802 0.000000 -0.000000 0.000000 -0.361894 -0.195177 -14.620081 2.957342 -7.436711 6.906451 
